<svg xmlns="http://www.w3.org/2000/svg" viewBox="0 0 32 32">
  <rect width="32" height="32" fill="#080808"/>
  <!-- Pixel letter F (5x7 at scale 2, top-left) -->
  <!-- F: cols 2-6, rows 2-8 (5 wide, 7 tall, pixel=2px) -->
  <!-- Row 1: █████ -->
  <rect x="2" y="2" width="2" height="2" fill="#c8c8c8"/>
  <rect x="4" y="2" width="2" height="2" fill="#c8c8c8"/>
  <rect x="6" y="2" width="2" height="2" fill="#c8c8c8"/>
  <rect x="8" y="2" width="2" height="2" fill="#c8c8c8"/>
  <rect x="10" y="2" width="2" height="2" fill="#c8c8c8"/>
  <!-- Row 2: █ -->
  <rect x="2" y="4" width="2" height="2" fill="#c8c8c8"/>
  <!-- Row 3: ████ -->
  <rect x="2" y="6" width="2" height="2" fill="#c8c8c8"/>
  <rect x="4" y="6" width="2" height="2" fill="#c8c8c8"/>
  <rect x="6" y="6" width="2" height="2" fill="#c8c8c8"/>
  <rect x="8" y="6" width="2" height="2" fill="#c8c8c8"/>
  <!-- Row 4: █ -->
  <rect x="2" y="8" width="2" height="2" fill="#c8c8c8"/>
  <!-- Row 5: █ -->
  <rect x="2" y="10" width="2" height="2" fill="#c8c8c8"/>
  <!-- Row 6: █ -->
  <rect x="2" y="12" width="2" height="2" fill="#c8c8c8"/>
  <!-- Row 7: █ -->
  <rect x="2" y="14" width="2" height="2" fill="#c8c8c8"/>

  <!-- Pixel letter O (5x7 at scale 2, offset x+14) -->
  <!-- Row 1: ███ -->
  <rect x="16" y="2" width="2" height="2" fill="#c8c8c8"/>
  <rect x="18" y="2" width="2" height="2" fill="#c8c8c8"/>
  <rect x="20" y="2" width="2" height="2" fill="#c8c8c8"/>
  <!-- Row 2: █ █ -->
  <rect x="16" y="4" width="2" height="2" fill="#c8c8c8"/>
  <rect x="20" y="4" width="2" height="2" fill="#c8c8c8"/>
  <!-- Row 3: █ █ -->
  <rect x="16" y="6" width="2" height="2" fill="#c8c8c8"/>
  <rect x="20" y="6" width="2" height="2" fill="#c8c8c8"/>
  <!-- Row 4: █ █ -->
  <rect x="16" y="8" width="2" height="2" fill="#c8c8c8"/>
  <rect x="20" y="8" width="2" height="2" fill="#c8c8c8"/>
  <!-- Row 5: █ █ -->
  <rect x="16" y="10" width="2" height="2" fill="#c8c8c8"/>
  <rect x="20" y="10" width="2" height="2" fill="#c8c8c8"/>
  <!-- Row 6: █ █ -->
  <rect x="16" y="12" width="2" height="2" fill="#c8c8c8"/>
  <rect x="20" y="12" width="2" height="2" fill="#c8c8c8"/>
  <!-- Row 7: ███ -->
  <rect x="16" y="14" width="2" height="2" fill="#c8c8c8"/>
  <rect x="18" y="14" width="2" height="2" fill="#c8c8c8"/>
  <rect x="20" y="14" width="2" height="2" fill="#c8c8c8"/>

  <!-- Pixel letter R (5x7 at scale 2, bottom-left) -->
  <!-- Row 1: ████ -->
  <rect x="2" y="18" width="2" height="2" fill="#c8c8c8"/>
  <rect x="4" y="18" width="2" height="2" fill="#c8c8c8"/>
  <rect x="6" y="18" width="2" height="2" fill="#c8c8c8"/>
  <rect x="8" y="18" width="2" height="2" fill="#c8c8c8"/>
  <!-- Row 2: █  █ -->
  <rect x="2" y="20" width="2" height="2" fill="#c8c8c8"/>
  <rect x="8" y="20" width="2" height="2" fill="#c8c8c8"/>
  <!-- Row 3: ████ -->
  <rect x="2" y="22" width="2" height="2" fill="#c8c8c8"/>
  <rect x="4" y="22" width="2" height="2" fill="#c8c8c8"/>
  <rect x="6" y="22" width="2" height="2" fill="#c8c8c8"/>
  <rect x="8" y="22" width="2" height="2" fill="#c8c8c8"/>
  <!-- Row 4: ██ -->
  <rect x="2" y="24" width="2" height="2" fill="#c8c8c8"/>
  <rect x="6" y="24" width="2" height="2" fill="#c8c8c8"/>
  <!-- Row 5: █  █ -->
  <rect x="2" y="26" width="2" height="2" fill="#c8c8c8"/>
  <rect x="8" y="26" width="2" height="2" fill="#c8c8c8"/>
  <!-- Row 6: █  █ -->
  <rect x="2" y="28" width="2" height="2" fill="#c8c8c8"/>
  <rect x="8" y="28" width="2" height="2" fill="#c8c8c8"/>

  <!-- Pixel letter M (5x7 at scale 2, bottom-right) -->
  <!-- Row 1: █   █ -->
  <rect x="16" y="18" width="2" height="2" fill="#c8c8c8"/>
  <rect x="24" y="18" width="2" height="2" fill="#c8c8c8"/>
  <!-- Row 2: ██ ██ -->
  <rect x="16" y="20" width="2" height="2" fill="#c8c8c8"/>
  <rect x="18" y="20" width="2" height="2" fill="#c8c8c8"/>
  <rect x="22" y="20" width="2" height="2" fill="#c8c8c8"/>
  <rect x="24" y="20" width="2" height="2" fill="#c8c8c8"/>
  <!-- Row 3: █ █ █ -->
  <rect x="16" y="22" width="2" height="2" fill="#c8c8c8"/>
  <rect x="20" y="22" width="2" height="2" fill="#c8c8c8"/>
  <rect x="24" y="22" width="2" height="2" fill="#c8c8c8"/>
  <!-- Row 4: █   █ -->
  <rect x="16" y="24" width="2" height="2" fill="#c8c8c8"/>
  <rect x="24" y="24" width="2" height="2" fill="#c8c8c8"/>
  <!-- Row 5: █   █ -->
  <rect x="16" y="26" width="2" height="2" fill="#c8c8c8"/>
  <rect x="24" y="26" width="2" height="2" fill="#c8c8c8"/>
  <!-- Row 6: █   █ -->
  <rect x="16" y="28" width="2" height="2" fill="#c8c8c8"/>
  <rect x="24" y="28" width="2" height="2" fill="#c8c8c8"/>
</svg>
